<?xml version="1.0"?>
<svg xmlns="http://www.w3.org/2000/svg" version="1.2" baseProfile="tiny" width="800" height="900" viewBox="0 0 800 900" stroke-linecap="round" stroke-linejoin="round">
<g id="doc-campsites">
<circle cx="662.9665" cy="337.4173"/>
<circle cx="78.5836" cy="736.0873"/>
<circle cx="379.2992" cy="461.0152"/>
<circle cx="569.1913" cy="250.4782"/>
<circle cx="563.8217" cy="335.1172"/>
<circle cx="561.5085" cy="345.956"/>
<circle cx="557.1386" cy="346.117"/>
<circle cx="566.4061" cy="356.1323"/>
<circle cx="568.9126" cy="333.6893"/>
<circle cx="591.6122" cy="467.7847"/>
<circle cx="180.9336" cy="862.1559"/>
<circle cx="172.4999" cy="855.9973"/>
<circle cx="105.2209" cy="757.1434"/>
<circle cx="149.4572" cy="706.2859"/>
<circle cx="21.8794" cy="794.0356"/>
<circle cx="274.5201" cy="718.49"/>
<circle cx="357.9504" cy="475.8514"/>
<circle cx="554.3339" cy="486.392"/>
<circle cx="92.9903" cy="720.2424"/>
<circle cx="102.5373" cy="720.9774"/>
<circle cx="414.0476" cy="464.0069"/>
<circle cx="85.0521" cy="750.8805"/>
<circle cx="372.5865" cy="459.9981"/>
<circle cx="71.7305" cy="744.8315"/>
<circle cx="612.7091" cy="188.6204"/>
<circle cx="375.7613" cy="460.3046"/>
<circle cx="81.37" cy="732.8077"/>
<circle cx="113.2631" cy="715.096"/>
<circle cx="72.6689" cy="884.3039"/>
<circle cx="67.6658" cy="886.1931"/>
<circle cx="557.7742" cy="342.497"/>
<circle cx="572.3682" cy="325.3507"/>
<circle cx="204.7249" cy="655.0657"/>
<circle cx="563.8167" cy="340.3438"/>
<circle cx="566.1126" cy="340.0466"/>
<circle cx="705.0592" cy="311.2644"/>
<circle cx="705.5325" cy="312.357"/>
<circle cx="709.6801" cy="307.157"/>
<circle cx="708.3316" cy="307.751"/>
<circle cx="705.1634" cy="309.4813"/>
<circle cx="215.0217" cy="661.3545"/>
<circle cx="698.3965" cy="342.5058"/>
<circle cx="422.0369" cy="454.0465"/>
<circle cx="423.0694" cy="458.4577"/>
<circle cx="421.3073" cy="453.2071"/>
<circle cx="425.1056" cy="466.0797"/>
<circle cx="425.9535" cy="464.9916"/>
<circle cx="424.4108" cy="466.8085"/>
<circle cx="426.2801" cy="464.7417"/>
<circle cx="423.4943" cy="467.2505"/>
<circle cx="425.7344" cy="465.4994"/>
<circle cx="390.9448" cy="501.321"/>
<circle cx="502.8869" cy="480.2686"/>
<circle cx="474.5549" cy="476.5094"/>
<circle cx="483.0722" cy="480.5057"/>
<circle cx="73.5675" cy="742.2825"/>
<circle cx="65.7263" cy="757.0038"/>
<circle cx="78.8167" cy="771.398"/>
<circle cx="597.2637" cy="338.7223"/>
<circle cx="612.8698" cy="337.2107"/>
<circle cx="622.0247" cy="201.3255"/>
<circle cx="567.0492" cy="331.1544"/>
<circle cx="560.9518" cy="338.0923"/>
<circle cx="574.2646" cy="321.7697"/>
<circle cx="563.3893" cy="349.8972"/>
<circle cx="558.4097" cy="493.081"/>
<circle cx="598.0008" cy="461.4339"/>
<circle cx="665.7734" cy="272.203"/>
<circle cx="508.7869" cy="475.9808"/>
<circle cx="579.7973" cy="500.06"/>
<circle cx="374.507" cy="623.9658"/>
<circle cx="611.8159" cy="340.9319"/>
<circle cx="31.4694" cy="780.7013"/>
<circle cx="43.2571" cy="781.1223"/>
<circle cx="72.3419" cy="882.8824"/>
<circle cx="410.9278" cy="525.334"/>
<circle cx="593.8587" cy="149.1234"/>
<circle cx="114.7875" cy="741.1672"/>
<circle cx="156.0272" cy="712.6128"/>
<circle cx="68.6442" cy="747.1977"/>
<circle cx="394.8127" cy="477.3219"/>
<circle cx="606.262" cy="336.2138"/>
<circle cx="602.2568" cy="340.2137"/>
<circle cx="616.3574" cy="191.28"/>
<circle cx="587.1983" cy="150.0107"/>
<circle cx="591.6054" cy="146.5798"/>
<circle cx="710.0284" cy="303.363"/>
<circle cx="714.6014" cy="280.7326"/>
<circle cx="422.8414" cy="457.3514"/>
<circle cx="419.9393" cy="453.0373"/>
<circle cx="382.4527" cy="457.4257"/>
<circle cx="425.3366" cy="462.164"/>
<circle cx="425.9575" cy="461.832"/>
<circle cx="425.4237" cy="465.6269"/>
<circle cx="425.0457" cy="460.1787"/>
<circle cx="138.5592" cy="792.2234"/>
<circle cx="27.6399" cy="823.9747"/>
<circle cx="647.332" cy="322.6548"/>
<circle cx="425.332" cy="460.5531"/>
<circle cx="424.992" cy="464.3434"/>
<circle cx="497.4169" cy="482.3465"/>
<circle cx="463.9715" cy="494.8112"/>
<circle cx="503.2763" cy="477.1406"/>
<circle cx="488.5921" cy="485.9995"/>
<circle cx="497.7611" cy="482.6634"/>
<circle cx="490.8673" cy="483.8872"/>
<circle cx="488.5952" cy="487.2798"/>
<circle cx="429.8008" cy="518.6253"/>
<circle cx="393.1544" cy="524.5012"/>
<circle cx="409.4663" cy="524.7699"/>
<circle cx="409.103" cy="524.9896"/>
<circle cx="689.0023" cy="246.7804"/>
<circle cx="559.0865" cy="492.4116"/>
<circle cx="422.0412" cy="455.4794"/>
<circle cx="658.1678" cy="354.0236"/>
<circle cx="608.5314" cy="192.621"/>
<circle cx="569.6283" cy="340.9387"/>
<circle cx="365.3233" cy="590.5729"/>
<circle cx="298.5077" cy="673.4607"/>
<circle cx="276.475" cy="691.4786"/>
<circle cx="290.5864" cy="681.4637"/>
<circle cx="332.7451" cy="609.3463"/>
<circle cx="270.4421" cy="712.1946"/>
<circle cx="335.9101" cy="550.2571"/>
<circle cx="588.1672" cy="147.1118"/>
<circle cx="91.2539" cy="741.2431"/>
<circle cx="124.7272" cy="742.8902"/>
<circle cx="712.3954" cy="306.9471"/>
<circle cx="714.6322" cy="277.0783"/>
<circle cx="747.9384" cy="263.1875"/>
<circle cx="694.6291" cy="298.1581"/>
<circle cx="700.2555" cy="300.9153"/>
<circle cx="686.6658" cy="302.0112"/>
<circle cx="708.9078" cy="302.3303"/>
<circle cx="715.2822" cy="310.718"/>
<circle cx="733.7747" cy="263.591"/>
<circle cx="733.4091" cy="275.5167"/>
<circle cx="600.1203" cy="329.0515"/>
<circle cx="645.9502" cy="323.6488"/>
<circle cx="622.3711" cy="336.8833"/>
<circle cx="173.1517" cy="731.7455"/>
<circle cx="53.0071" cy="768.8108"/>
<circle cx="32.3749" cy="810.0598"/>
<circle cx="630.4979" cy="400.7215"/>
<circle cx="645.0938" cy="325.108"/>
<circle cx="650.623" cy="322.8827"/>
<circle cx="67.6503" cy="749.3334"/>
<circle cx="66.9433" cy="752.3145"/>
<circle cx="67.7173" cy="749.7145"/>
<circle cx="65.3004" cy="757.754"/>
<circle cx="63.9689" cy="759.5545"/>
<circle cx="648.0582" cy="322.1906"/>
<circle cx="622.5921" cy="335.6864"/>
<circle cx="172.5991" cy="731.003"/>
<circle cx="606.4198" cy="390.0345"/>
<circle cx="606.6566" cy="187.0819"/>
<circle cx="682.8076" cy="335.9718"/>
<circle cx="490.6374" cy="470.8214"/>
<circle cx="496.3214" cy="481.9475"/>
<circle cx="483.8408" cy="468.2516"/>
<circle cx="510.7093" cy="473.489"/>
<circle cx="495.072" cy="482.4287"/>
<circle cx="481.6089" cy="462.809"/>
<circle cx="484.6187" cy="475.8622"/>
<circle cx="482.4723" cy="486.567"/>
<circle cx="500.8067" cy="482.6071"/>
<circle cx="611.6755" cy="186.0422"/>
<circle cx="666.3392" cy="352.3088"/>
<circle cx="496.1061" cy="481.9456"/>
<circle cx="501.1968" cy="480.4209"/>
<circle cx="477.3386" cy="478.7343"/>
<circle cx="480.2743" cy="473.1869"/>
<circle cx="495.0697" cy="473.7996"/>
<circle cx="416.306" cy="471.475"/>
<circle cx="483.3212" cy="454.4299"/>
<circle cx="147.6193" cy="693.4788"/>
<circle cx="481.5016" cy="456.7347"/>
<circle cx="486.2922" cy="457.0204"/>
<circle cx="478.8647" cy="454.5787"/>
<circle cx="403.873" cy="531.1954"/>
<circle cx="49.1984" cy="884.5557"/>
<circle cx="76.36" cy="893.7076"/>
<circle cx="588.9778" cy="472.6957"/>
<circle cx="66.2758" cy="878.9649"/>
<circle cx="62.2333" cy="873.8423"/>
<circle cx="54.3801" cy="873.5032"/>
<circle cx="46.4356" cy="876.422"/>
<circle cx="1" cy="785.8702"/>
<circle cx="799" cy="271.4174"/>
<circle cx="633.4756" cy="409.1495"/>
<circle cx="335.9454" cy="609.7878"/>
<circle cx="107.1094" cy="752.2165"/>
<circle cx="602.6881" cy="454.4207"/>
<circle cx="292.7248" cy="680.4102"/>
<circle cx="458.0415" cy="503.6804"/>
<circle cx="671.0091" cy="274.5687"/>
<circle cx="660.5834" cy="266.3707"/>
<circle cx="665.4813" cy="266.6624"/>
<circle cx="670.705" cy="268.0037"/>
<circle cx="483.4539" cy="483.8075"/>
<circle cx="476.435" cy="471.9958"/>
<circle cx="482.9101" cy="460.3038"/>
<circle cx="490.8017" cy="481.5747"/>
<circle cx="462.254" cy="489.4661"/>
<circle cx="321.4703" cy="610.3531"/>
<circle cx="319.5761" cy="605.9917"/>
<circle cx="368.7045" cy="594.1145"/>
<circle cx="717.0752" cy="308.4025"/>
<circle cx="616.9817" cy="214.9226"/>
<circle cx="321.3337" cy="609.0848"/>
<circle cx="566.4518" cy="252.1606"/>
<circle cx="513.4894" cy="480.839"/>
<circle cx="508.0444" cy="484.2266"/>
<circle cx="594.4923" cy="353.763"/>
<circle cx="335.3035" cy="616.6045"/>
<circle cx="378.9282" cy="567.9099"/>
<circle cx="157.8694" cy="692.7382"/>
<circle cx="498.1623" cy="487.2799"/>
<circle cx="164.5288" cy="682.1172"/>
<circle cx="78.0297" cy="898.7822"/>
<circle cx="388.163" cy="620.7589"/>
<circle cx="509.4087" cy="480.1155"/>
<circle cx="471.9355" cy="500.6545"/>
<circle cx="570.431" cy="254.4104"/>
<circle cx="631.8693" cy="400.3607"/>
<circle cx="423.8306" cy="467.3125"/>
<circle cx="262.3499" cy="768.5037"/>
<circle cx="602.0413" cy="155.7723"/>
<circle cx="422.0824" cy="455.1753"/>
<circle cx="569.51" cy="338.4364"/>
<circle cx="195.5674" cy="688.9267"/>
<circle cx="207.5989" cy="714.5048"/>
<circle cx="215.4882" cy="695.961"/>
<circle cx="195.5235" cy="696.0693"/>
<circle cx="683.2863" cy="306.1682"/>
<circle cx="562.5081" cy="342.5087"/>
<circle cx="581.4173" cy="448.2235"/>
<circle cx="580.0222" cy="459.257"/>
<circle cx="579.6282" cy="459.7332"/>
<circle cx="566.6363" cy="494.6228"/>
<circle cx="264.0841" cy="781.0797"/>
<circle cx="487.7242" cy="487.4885"/>
<circle cx="358.2561" cy="471.2142"/>
<circle cx="358.4954" cy="467.1366"/>
<circle cx="358.1013" cy="474.3423"/>
<circle cx="371.2545" cy="560.7971"/>
<circle cx="290.5945" cy="596.6149"/>
<circle cx="272.5608" cy="595.6169"/>
<circle cx="366.5257" cy="564.0269"/>
<circle cx="354.1451" cy="524.7087"/>
<circle cx="288.3616" cy="587.1719"/>
<circle cx="166.6818" cy="661.4988"/>
<circle cx="224.5283" cy="631.4318"/>
<circle cx="253.5767" cy="614.4872"/>
<circle cx="311.0921" cy="542.2113"/>
<circle cx="200.721" cy="736.3993"/>
<circle cx="194.2328" cy="742.9126"/>
<circle cx="228.985" cy="751.2832"/>
<circle cx="416.2076" cy="543.5391"/>
<circle cx="637.9719" cy="379.9939"/>
<circle cx="366.1115" cy="459.9542"/>
<circle cx="686.955" cy="298.995"/>
<circle cx="478.1093" cy="56.6678"/>
<circle cx="401.5816" cy="1.6788"/>
<circle cx="405.9364" cy="2.7312"/>
<circle cx="400.6499" cy="6.5797"/>
<circle cx="518.397" cy="67.5642"/>
<circle cx="525.4956" cy="108.0076"/>
<circle cx="522.0885" cy="73.087"/>
<circle cx="470.4744" cy="61.3214"/>
<circle cx="194.6572" cy="707.0476"/>
<circle cx="610.6167" cy="266.6693"/>
<circle cx="614.8866" cy="295.254"/>
<circle cx="603.8422" cy="291.1905"/>
<circle cx="509.2555" cy="57.7197"/>
<circle cx="525.5931" cy="76.629"/>
<circle cx="509.4338" cy="57.7339"/>
<circle cx="427.585" cy="22.1058"/>
<circle cx="509.7523" cy="57.1097"/>
<circle cx="450.736" cy="29.5307"/>
<circle cx="670.1987" cy="275.0129"/>
<circle cx="622.898" cy="335.6662"/>
<circle cx="403.2621" cy="554.1719"/>
<circle cx="392.1464" cy="499.4837"/>
<circle cx="331.5384" cy="620.95"/>
<circle cx="381.9161" cy="460.5808"/>
<circle cx="170.8208" cy="863.0152"/>
<circle cx="394.5533" cy="517.3896"/>
<circle cx="196.3413" cy="639.2092"/>
<circle cx="412.0238" cy="1"/>
<circle cx="593.8549" cy="123.027"/>
<circle cx="597.8658" cy="127.1009"/>
<circle cx="597.9488" cy="124.9212"/>
<circle cx="599.6155" cy="131.9301"/>
<circle cx="589.6961" cy="124.93"/>
<circle cx="592.3513" cy="129.6578"/>
<circle cx="548.9919" cy="148.5617"/>
<circle cx="559.3155" cy="169.8264"/>
<circle cx="496.1447" cy="495.9907"/>
<circle cx="496.8618" cy="495.2806"/>
<circle cx="497.7944" cy="493.5845"/>
<circle cx="598.7367" cy="299.8712"/>
<circle cx="507.3355" cy="519.6274"/>
<circle cx="418.6335" cy="567.2453"/>
<circle cx="440.9373" cy="545.1871"/>
<circle cx="468.0925" cy="92.9207"/>
<circle cx="76.1424" cy="740.112"/>
<circle cx="452.6893" cy="53.6559"/>
<circle cx="657.9778" cy="353.5169"/>
<circle cx="378.1287" cy="575.8558"/>
<circle cx="101.2625" cy="759.5782"/>
<circle cx="104.8649" cy="759.7199"/>
<circle cx="88.7426" cy="732.8608"/>
<circle cx="576.0441" cy="375.6938"/>
<circle cx="105.9255" cy="718.3911"/>
</g>
</svg>